# xmcd CD database file
#
# Track frame offsets:
#	150
#	22785
#	47732
#	70583
#	94360
#	118545
#	140410
#	162320
#	184415
#	208492
#	229465
#	250578
#
# Disc length: 3682 seconds
#
# Revision: 3
# Processed by: cddbd v1.5.1PL0 Copyright (c) Steve Scherf et al.
# Submitted via: CDex 1.51
#
DISCID=aa0e600c
DTITLE=Noriyuki Makihara - EXPLOPER
DYEAR=2004
DGENRE=JPop
TTITLE0=Yasashiiutaga Utaenai
TTITLE1=Natuha Oboeteiru
TTITLE2=Tag Team
TTITLE3=Bushiha Kuwanedo Takayouji
TTITLE4=Happy Ending
TTITLE5=Kimino Namaewo Yondaatoni
TTITLE6=Toriaezu Nanikatabeyou
TTITLE7=Hatomame - Say Hello To The World.?
TTITLE8=The Fog
TTITLE9=Sekaini Hitotudakeno Hana
TTITLE10=Boy, I'm Gonna Try So Hard
TTITLE11=Bokuga Itiban Hosikattamono
EXTD=YEAR: 2004
EXTT0=
EXTT1=
EXTT2=
EXTT3=
EXTT4=
EXTT5=
EXTT6=
EXTT7=
EXTT8=
EXTT9=
EXTT10=
EXTT11=
PLAYORDER=
